<?xml version="1.0" encoding="UTF-8"?>
<svg xmlns="http://www.w3.org/2000/svg" xmlns:xlink="http://www.w3.org/1999/xlink" width="16px" height="16px" viewBox="0 0 16 16" version="1.1">
<g id="surface1">
<path style=" stroke:none;fill-rule:nonzero;fill:rgb(86.27451%,26.666667%,1.960784%);fill-opacity:1;" d="M 0 0 C 5.28125 0 10.558594 0 16 0 C 16 5.28125 16 10.558594 16 16 C 10.71875 16 5.441406 16 0 16 C 0 10.71875 0 5.441406 0 0 Z M 0 0 "/>
<path style=" stroke:none;fill-rule:nonzero;fill:rgb(99.607843%,99.607843%,99.607843%);fill-opacity:1;" d="M 0 0 C 5.28125 0 10.558594 0 16 0 C 16 2.460938 16 4.921875 16 7.460938 C 15.988281 7.460938 15.976562 7.460938 15.964844 7.460938 C 15.960938 7.433594 15.957031 7.40625 15.953125 7.378906 C 15.742188 5.6875 15.207031 4.164062 14.078125 2.859375 C 14.050781 2.828125 14.027344 2.796875 14 2.765625 C 13.921875 2.679688 13.84375 2.59375 13.765625 2.511719 C 13.746094 2.492188 13.726562 2.472656 13.710938 2.453125 C 13.382812 2.105469 13.035156 1.808594 12.644531 1.535156 C 12.625 1.519531 12.605469 1.503906 12.582031 1.488281 C 11.941406 1.019531 11.21875 0.695312 10.464844 0.449219 C 10.390625 0.421875 10.320312 0.398438 10.246094 0.375 C 9.191406 0.015625 7.976562 -0.0117188 6.882812 0.140625 C 6.835938 0.144531 6.835938 0.144531 6.789062 0.152344 C 5.976562 0.265625 5.207031 0.507812 4.472656 0.871094 C 4.445312 0.882812 4.421875 0.894531 4.394531 0.910156 C 3.652344 1.269531 3.007812 1.769531 2.410156 2.335938 C 2.363281 2.382812 2.363281 2.382812 2.3125 2.429688 C 2.0625 2.667969 1.851562 2.929688 1.640625 3.207031 C 1.621094 3.234375 1.621094 3.234375 1.597656 3.265625 C 0.621094 4.542969 0.183594 6.019531 0.0351562 7.597656 C 0.0234375 7.597656 0.0117188 7.597656 0 7.597656 C 0 5.089844 0 2.582031 0 0 Z M 0 0 "/>
<path style=" stroke:none;fill-rule:nonzero;fill:rgb(99.607843%,99.607843%,99.607843%);fill-opacity:1;" d="M 8 3.664062 C 8.042969 3.664062 8.085938 3.664062 8.128906 3.660156 C 8.332031 3.664062 8.484375 3.667969 8.640625 3.800781 C 8.683594 3.847656 8.726562 3.894531 8.769531 3.9375 C 8.816406 3.984375 8.863281 4.027344 8.910156 4.070312 C 8.957031 4.117188 9.007812 4.160156 9.054688 4.207031 C 9.234375 4.375 9.414062 4.542969 9.59375 4.710938 C 9.757812 4.859375 9.917969 5.007812 10.078125 5.160156 C 10.257812 5.328125 10.441406 5.496094 10.621094 5.664062 C 10.726562 5.757812 10.828125 5.851562 10.929688 5.949219 C 10.953125 5.96875 10.976562 5.992188 11 6.015625 C 11.046875 6.054688 11.089844 6.097656 11.132812 6.140625 C 11.15625 6.15625 11.175781 6.175781 11.195312 6.195312 C 11.214844 6.214844 11.230469 6.230469 11.25 6.246094 C 11.3125 6.308594 11.3125 6.308594 11.378906 6.339844 C 11.460938 6.394531 11.507812 6.4375 11.5625 6.519531 C 11.601562 6.703125 11.59375 6.886719 11.589844 7.074219 C 11.589844 7.128906 11.589844 7.1875 11.59375 7.242188 C 11.59375 7.398438 11.589844 7.550781 11.589844 7.707031 C 11.585938 7.867188 11.585938 8.03125 11.585938 8.191406 C 11.585938 8.460938 11.585938 8.734375 11.582031 9.003906 C 11.582031 9.386719 11.578125 9.769531 11.578125 10.152344 C 11.578125 10.449219 11.578125 10.746094 11.574219 11.042969 C 11.574219 11.074219 11.574219 11.105469 11.574219 11.140625 C 11.574219 11.324219 11.574219 11.507812 11.570312 11.6875 C 11.570312 11.746094 11.570312 11.800781 11.570312 11.855469 C 11.570312 11.929688 11.570312 12.007812 11.570312 12.082031 C 11.570312 12.125 11.570312 12.167969 11.566406 12.210938 C 11.5625 12.304688 11.5625 12.304688 11.527344 12.339844 C 11.453125 12.34375 11.375 12.34375 11.296875 12.34375 C 11.273438 12.34375 11.25 12.34375 11.226562 12.34375 C 11.179688 12.34375 11.128906 12.34375 11.078125 12.34375 C 11.003906 12.34375 10.929688 12.34375 10.855469 12.34375 C 10.808594 12.34375 10.757812 12.34375 10.710938 12.34375 C 10.667969 12.34375 10.625 12.34375 10.578125 12.34375 C 10.480469 12.339844 10.480469 12.339844 10.445312 12.304688 C 10.441406 12.238281 10.441406 12.171875 10.441406 12.105469 C 10.441406 12.058594 10.445312 12.015625 10.445312 11.972656 C 10.445312 11.949219 10.445312 11.921875 10.445312 11.898438 C 10.445312 11.796875 10.445312 11.695312 10.445312 11.589844 C 10.449219 11.535156 10.449219 11.480469 10.449219 11.425781 C 10.449219 11.222656 10.449219 11.019531 10.453125 10.8125 C 10.453125 10.769531 10.453125 10.769531 10.453125 10.722656 C 10.453125 10.601562 10.453125 10.480469 10.453125 10.359375 C 10.453125 10.011719 10.453125 9.667969 10.457031 9.320312 C 10.460938 9.046875 10.460938 8.769531 10.460938 8.496094 C 10.460938 8.351562 10.460938 8.203125 10.464844 8.058594 C 10.507812 7.394531 10.507812 7.394531 10.25 6.816406 C 10.15625 6.742188 10.0625 6.683594 9.957031 6.625 C 9.90625 6.582031 9.859375 6.535156 9.8125 6.488281 C 9.792969 6.472656 9.773438 6.453125 9.753906 6.433594 C 9.734375 6.414062 9.714844 6.398438 9.695312 6.378906 C 9.511719 6.210938 9.332031 6.042969 9.148438 5.875 C 9.003906 5.742188 8.859375 5.605469 8.714844 5.46875 C 8.488281 5.261719 8.261719 5.050781 8.035156 4.84375 C 7.921875 4.894531 7.847656 4.953125 7.765625 5.042969 C 7.652344 5.160156 7.535156 5.265625 7.410156 5.371094 C 7.289062 5.480469 7.167969 5.59375 7.050781 5.707031 C 6.816406 5.925781 6.582031 6.144531 6.34375 6.363281 C 6.285156 6.417969 6.226562 6.472656 6.167969 6.523438 C 6.148438 6.542969 6.128906 6.5625 6.105469 6.582031 C 6.070312 6.617188 6.03125 6.652344 5.992188 6.6875 C 5.976562 6.703125 5.960938 6.71875 5.941406 6.734375 C 5.925781 6.75 5.910156 6.765625 5.890625 6.78125 C 5.835938 6.832031 5.835938 6.832031 5.769531 6.871094 C 5.652344 6.945312 5.597656 7.003906 5.566406 7.144531 C 5.558594 7.277344 5.558594 7.414062 5.558594 7.546875 C 5.558594 7.597656 5.558594 7.652344 5.558594 7.703125 C 5.558594 7.84375 5.558594 7.984375 5.558594 8.125 C 5.558594 8.269531 5.558594 8.417969 5.558594 8.566406 C 5.558594 8.84375 5.558594 9.121094 5.558594 9.398438 C 5.558594 9.808594 5.558594 10.214844 5.558594 10.625 C 5.558594 10.683594 5.558594 10.746094 5.558594 10.804688 C 5.558594 10.847656 5.558594 10.847656 5.558594 10.894531 C 5.558594 11.070312 5.558594 11.246094 5.558594 11.417969 C 5.558594 11.527344 5.558594 11.636719 5.558594 11.746094 C 5.558594 11.796875 5.558594 11.847656 5.558594 11.894531 C 5.558594 11.964844 5.558594 12.035156 5.558594 12.101562 C 5.558594 12.140625 5.558594 12.179688 5.558594 12.21875 C 5.554688 12.304688 5.554688 12.304688 5.519531 12.339844 C 5.441406 12.34375 5.367188 12.34375 5.289062 12.34375 C 5.265625 12.34375 5.242188 12.34375 5.21875 12.34375 C 5.167969 12.34375 5.121094 12.34375 5.070312 12.34375 C 4.996094 12.34375 4.921875 12.34375 4.84375 12.34375 C 4.796875 12.34375 4.75 12.34375 4.703125 12.34375 C 4.660156 12.34375 4.617188 12.34375 4.570312 12.34375 C 4.472656 12.339844 4.472656 12.339844 4.4375 12.304688 C 4.433594 12.230469 4.429688 12.160156 4.429688 12.085938 C 4.429688 12.0625 4.429688 12.039062 4.429688 12.015625 C 4.425781 11.9375 4.425781 11.859375 4.425781 11.78125 C 4.425781 11.726562 4.421875 11.667969 4.421875 11.613281 C 4.414062 11.101562 4.410156 10.589844 4.410156 10.078125 C 4.40625 9.734375 4.402344 9.390625 4.398438 9.046875 C 4.394531 8.746094 4.390625 8.445312 4.390625 8.144531 C 4.390625 7.988281 4.386719 7.828125 4.382812 7.667969 C 4.359375 6.574219 4.359375 6.574219 4.609375 6.296875 C 4.691406 6.222656 4.773438 6.160156 4.867188 6.101562 C 4.945312 6.050781 5.011719 5.992188 5.078125 5.929688 C 5.097656 5.910156 5.121094 5.894531 5.140625 5.875 C 5.261719 5.773438 5.375 5.664062 5.492188 5.554688 C 5.726562 5.332031 5.960938 5.113281 6.199219 4.894531 C 6.292969 4.808594 6.382812 4.726562 6.476562 4.640625 C 6.496094 4.625 6.511719 4.605469 6.53125 4.589844 C 6.636719 4.492188 6.738281 4.398438 6.84375 4.300781 C 6.867188 4.28125 6.886719 4.257812 6.914062 4.234375 C 6.957031 4.195312 7 4.152344 7.042969 4.113281 C 7.085938 4.074219 7.125 4.035156 7.167969 3.996094 C 7.234375 3.9375 7.234375 3.9375 7.292969 3.871094 C 7.5 3.652344 7.707031 3.65625 8 3.664062 Z M 8 3.664062 "/>
<path style=" stroke:none;fill-rule:nonzero;fill:rgb(99.607843%,99.607843%,99.607843%);fill-opacity:1;" d="M 0 8.4375 C 0.0117188 8.4375 0.0234375 8.4375 0.0351562 8.4375 C 0.0390625 8.472656 0.0429688 8.511719 0.046875 8.550781 C 0.0625 8.734375 0.0820312 8.917969 0.105469 9.097656 C 0.109375 9.128906 0.113281 9.160156 0.117188 9.191406 C 0.359375 11.109375 1.449219 12.992188 2.96875 14.1875 C 3.003906 14.214844 3.035156 14.242188 3.070312 14.269531 C 4.347656 15.28125 5.863281 15.8125 7.476562 15.964844 C 7.476562 15.976562 7.476562 15.988281 7.476562 16 C 5.007812 16 2.542969 16 0 16 C 0 13.503906 0 11.007812 0 8.4375 Z M 0 8.4375 "/>
<path style=" stroke:none;fill-rule:nonzero;fill:rgb(99.607843%,99.607843%,99.215686%);fill-opacity:1;" d="M 15.964844 8.402344 C 15.976562 8.402344 15.988281 8.402344 16 8.402344 C 16 10.910156 16 13.417969 16 16 C 13.519531 16 11.042969 16 8.488281 16 C 8.488281 15.988281 8.488281 15.976562 8.488281 15.964844 C 8.519531 15.960938 8.546875 15.957031 8.578125 15.953125 C 9.34375 15.867188 9.34375 15.867188 10.097656 15.6875 C 10.128906 15.675781 10.164062 15.664062 10.199219 15.652344 C 11.230469 15.332031 12.152344 14.90625 12.996094 14.222656 C 13.015625 14.207031 13.039062 14.1875 13.058594 14.171875 C 13.5 13.8125 13.90625 13.417969 14.253906 12.96875 C 14.269531 12.949219 14.285156 12.929688 14.296875 12.910156 C 14.539062 12.59375 14.753906 12.265625 14.953125 11.921875 C 14.96875 11.890625 14.96875 11.890625 14.988281 11.859375 C 15.394531 11.160156 15.644531 10.375 15.824219 9.585938 C 15.832031 9.558594 15.835938 9.535156 15.84375 9.507812 C 15.894531 9.273438 15.917969 9.039062 15.933594 8.796875 C 15.9375 8.738281 15.9375 8.738281 15.945312 8.679688 C 15.949219 8.585938 15.957031 8.496094 15.964844 8.402344 Z M 15.964844 8.402344 "/>
</g>
</svg>
