<?xml version="1.0" standalone="no"?>
<!DOCTYPE svg PUBLIC "-//W3C//DTD SVG 20010904//EN"
 "http://www.w3.org/TR/2001/REC-SVG-20010904/DTD/svg10.dtd">
<svg version="1.0" xmlns="http://www.w3.org/2000/svg"
 width="300.000000pt" height="300.000000pt" viewBox="0 0 300.000000 300.000000"
 preserveAspectRatio="xMidYMid meet">
<metadata>
Created by potrace 1.16, written by Peter Selinger 2001-2019
</metadata>
<g transform="translate(0.000000,300.000000) scale(0.060000,-0.060000)"
fill="#000000" stroke="none">
<path d="M812 4324 l-63 -125 7 -147 7 -147 80 -160 c52 -101 97 -177 125
-207 l43 -46 -98 -110 c-84 -94 -104 -124 -144 -212 l-46 -103 21 -71 20 -70
38 119 c21 66 35 128 32 137 -6 21 69 98 96 98 51 0 51 -12 -1 -51 -28 -21
-54 -41 -58 -45 -9 -11 539 283 549 294 6 6 0 4 -113 -44 -48 -20 -89 -35 -91
-33 -3 2 91 101 207 219 l212 214 165 99 c232 139 364 203 520 253 74 24 136
41 138 39 2 -2 -63 -43 -145 -91 -306 -181 -467 -297 -625 -453 -69 -68 -141
-129 -175 -148 -32 -18 -58 -36 -58 -40 -2 -27 -53 -93 -154 -198 -63 -66
-138 -143 -165 -172 l-49 -52 18 -398 c13 -305 21 -402 31 -414 8 -8 14 -20
14 -26 0 -14 88 -95 136 -125 21 -14 70 -36 108 -51 100 -38 128 -61 213 -170
41 -53 79 -97 82 -97 20 0 2 55 -59 182 -67 138 -71 145 -147 210 -43 38 -106
94 -140 125 l-62 58 -16 218 c-8 119 -15 247 -15 282 l0 65 28 -6 c15 -4 30
-9 34 -13 3 -3 28 -89 54 -191 l48 -185 95 -100 c117 -122 112 -118 208 -154
l78 -29 -3 -43 c-2 -43 -2 -43 12 -19 8 14 18 41 21 60 5 29 13 38 48 53 41
17 42 17 59 -5 10 -13 18 -35 18 -49 0 -15 7 -32 15 -39 12 -10 15 -36 15
-116 l0 -103 -40 14 c-22 8 -40 12 -40 10 0 -4 125 -95 131 -95 3 0 1 53 -4
118 -9 120 -2 308 13 332 6 10 21 2 59 -30 28 -24 53 -41 55 -39 4 5 55 381
62 464 3 33 6 61 7 62 1 1 56 -14 121 -33 66 -19 123 -33 127 -32 4 2 -40 46
-98 98 -57 52 -110 104 -116 115 -6 11 -34 83 -63 160 l-52 140 -103 12 c-57
6 -106 10 -108 8 -1 -2 24 -17 57 -34 53 -27 72 -46 147 -142 47 -62 83 -114
81 -117 -3 -2 -64 17 -136 42 l-132 46 -41 -24 -41 -25 -33 80 c-18 44 -53
107 -78 141 -25 34 -45 66 -45 70 0 4 -4 8 -10 8 -15 0 -93 -138 -87 -154 3
-8 58 -43 122 -78 83 -45 126 -75 148 -103 17 -22 63 -78 101 -125 l71 -85
-64 57 c-34 31 -81 69 -103 85 -40 27 -43 28 -163 25 -67 -2 -139 0 -158 3
-35 7 -36 8 -53 82 l-18 75 48 196 c27 109 51 203 54 211 4 10 -1 11 -18 6
-38 -12 -14 12 68 67 42 28 102 74 132 103 30 28 77 64 103 79 42 25 52 27 87
18 22 -5 40 -7 40 -3 0 3 28 25 63 48 45 30 110 57 239 99 l177 58 173 -58
c190 -64 216 -75 269 -117 27 -22 48 -29 79 -29 33 0 60 -10 117 -45 50 -31
79 -43 89 -37 24 13 -9 36 -116 78 -52 21 -97 41 -98 46 -2 4 -7 6 -11 4 -4
-3 -16 9 -26 25 -11 16 -27 29 -36 29 -23 0 -54 49 -40 63 7 7 18 5 35 -7 56
-35 81 -49 71 -39 -17 18 -186 128 -290 188 -55 32 -127 74 -159 93 -33 20
-71 37 -84 38 -54 6 -395 -124 -632 -241 l-107 -52 -96 137 c-73 104 -121 161
-197 231 -95 89 -105 95 -163 106 -34 7 -111 15 -172 18 -60 3 -135 7 -165 10
l-56 4 -62 -125z m88 69 c-1 -56 -36 -207 -49 -211 -8 -3 -6 -11 6 -25 22 -25
3 -16 -49 25 l-38 30 58 109 c31 60 60 109 65 109 4 0 7 -17 7 -37z m527 -730
c-68 -78 -102 -109 -121 -111 -14 -2 -26 1 -26 6 0 5 -20 37 -45 71 -25 34
-46 66 -48 73 -1 8 51 21 158 39 88 15 164 28 168 28 5 1 -34 -47 -86 -106z
m265 -910 c38 -59 48 -66 152 -122 62 -33 133 -72 159 -89 l46 -29 -29 -21
c-38 -29 -45 -28 -137 12 -43 19 -112 48 -154 65 -50 21 -89 45 -116 74 -44
45 -47 55 -68 252 l-7 59 57 -69 c31 -38 75 -98 97 -132z m115 141 c19 -5 21
-10 12 -25 -20 -37 32 -90 69 -70 10 5 24 17 31 25 11 14 15 14 37 -1 31 -20
31 -48 -1 -69 -34 -22 -136 -16 -164 10 -29 27 -44 77 -32 110 11 28 14 29 48
20z"/>
<path d="M3930 4443 c-30 -2 -104 -10 -165 -19 l-109 -15 -64 -57 c-36 -31
-83 -72 -105 -90 -23 -19 -83 -96 -137 -176 l-95 -144 -68 34 c-58 30 -67 32
-67 16 0 -12 38 -39 125 -87 69 -39 147 -84 175 -102 49 -31 116 -46 343 -79
26 -3 47 -9 47 -12 0 -3 -22 -38 -50 -78 -27 -40 -50 -76 -50 -81 1 -11 184
-113 203 -113 8 0 46 33 84 74 52 57 85 106 140 213 l73 140 2 165 3 165 -65
126 -65 127 -50 -2 c-27 -1 -75 -3 -105 -5z"/>
<path d="M2487 3827 c-11 -178 -9 -205 12 -224 10 -10 45 -39 77 -64 51 -41
69 -48 131 -58 39 -6 107 -11 150 -12 43 0 104 -4 136 -8 31 -4 57 -4 57 0 0
4 -19 23 -42 42 -38 31 -57 37 -173 58 -123 22 -132 25 -171 61 -30 28 -40 44
-37 60 2 13 0 51 -5 86 -6 43 -5 62 2 62 12 0 -21 29 -90 79 l-41 30 -6 -112z"/>
<path d="M2116 3565 c-117 -22 -119 -23 -165 -70 l-46 -47 35 6 c19 3 98 8
175 12 131 6 205 22 205 44 0 4 -7 24 -15 44 -18 43 -20 43 -189 11z"/>
<path d="M2480 3382 c0 -32 -6 -65 -12 -74 -7 -8 -39 -30 -70 -47 -78 -44 -85
-60 -9 -22 33 17 67 31 75 31 22 0 26 -33 26 -240 l1 -195 20 59 c10 32 28 74
40 92 18 29 26 34 59 34 27 0 48 -8 70 -26 l31 -27 -23 -25 c-13 -13 -62 -60
-110 -103 -48 -44 -86 -79 -84 -79 2 0 37 14 77 31 41 18 98 40 128 50 52 18
55 18 74 2 38 -35 81 -97 70 -100 -10 -4 57 -197 75 -215 4 -3 77 31 162 77
l154 84 86 120 c47 66 124 160 171 209 47 49 98 105 112 124 l27 35 -35 59
c-19 32 -35 50 -35 41 0 -10 -8 -17 -19 -17 -30 0 -51 -11 -51 -27 0 -8 -4
-11 -10 -8 -13 8 -13 -1 0 -45 15 -49 -14 -160 -42 -160 -17 0 -57 18 -68 31
-5 6 -229 -80 -271 -105 -15 -9 -62 -48 -105 -88 -86 -80 -78 -64 38 81 38 47
68 89 68 95 0 6 -17 21 -38 32 l-37 22 -139 -49 c-106 -37 -142 -46 -149 -36
-4 6 -6 60 -3 120 5 106 4 108 -29 175 -19 37 -45 77 -57 89 -25 22 -108 53
-145 53 -21 0 -23 -4 -23 -58z m734 -484 c27 -39 20 -86 -18 -124 -29 -29 -41
-34 -80 -34 -52 0 -100 20 -115 48 -7 14 -3 26 16 50 l25 33 17 -33 c12 -26
23 -34 49 -36 39 -4 62 12 62 41 0 25 -27 57 -49 58 -26 1 20 17 51 18 17 1
33 -7 42 -21z"/>
<path d="M3679 3237 l72 -135 -6 -144 c-8 -219 -25 -519 -31 -556 -4 -27 -8
-31 -19 -22 -16 14 -16 14 -121 -61 -44 -32 -117 -81 -162 -107 -88 -52 -88
-54 -25 -86 32 -16 32 -16 19 -54 -8 -20 -37 -85 -64 -145 -28 -59 -48 -107
-44 -106 4 0 41 46 82 101 l75 101 180 101 c99 56 192 109 206 119 l26 17 161
-136 160 -136 -38 -91 c-93 -225 -90 -220 -143 -192 -15 8 -25 10 -21 4 10
-17 -191 -4 -273 18 -42 11 -82 28 -95 41 -21 20 -21 22 -4 22 11 0 17 3 14 6
-7 6 -288 -78 -288 -87 0 -5 161 -55 213 -66 16 -3 43 -25 70 -57 23 -28 45
-52 50 -54 4 -2 7 -34 7 -71 0 -53 -5 -75 -21 -97 -11 -16 0 -6 25 21 25 28
46 53 46 58 0 4 37 7 83 7 l82 0 156 168 c181 193 219 237 219 247 0 4 -13 30
-30 57 -16 26 -30 50 -30 53 0 3 23 5 50 5 28 0 50 4 50 8 0 4 -21 33 -47 63
-27 31 -55 64 -63 74 -8 10 -53 57 -100 105 l-85 86 -68 -25 c-37 -13 -70 -21
-73 -18 -3 3 3 184 14 403 l20 399 -150 148 -150 149 71 -135z"/>
<path d="M3223 3269 c-48 -63 -120 -206 -109 -216 6 -7 231 113 244 130 8 10
1 30 -29 80 -22 36 -43 68 -47 70 -4 3 -30 -26 -59 -64z"/>
<path d="M3551 2779 c-13 -10 -20 -19 -15 -19 4 0 -9 -18 -31 -40 -21 -22 -40
-47 -41 -57 -2 -9 -18 -46 -36 -82 l-33 -65 -6 74 c-3 41 -6 65 -7 52 -1 -14
-7 -22 -14 -20 -7 3 -21 -6 -31 -19 -10 -13 -22 -21 -27 -18 -8 5 -199 -70
-213 -84 -5 -5 1 -24 12 -42 12 -19 21 -37 21 -41 0 -9 -138 49 -172 73 -14
11 -28 19 -31 19 -3 0 2 -24 12 -52 17 -53 18 -53 116 -104 54 -29 107 -62
117 -74 l17 -22 58 45 c32 24 103 74 158 109 140 92 157 112 188 233 41 161
40 150 9 152 -15 1 -38 -7 -51 -18z"/>
<path d="M776 1939 c-11 -18 -13 -29 -6 -24 8 5 11 2 8 -10 -1 -10 -9 -20 -17
-23 -9 -3 -11 0 -6 8 5 9 4 11 -4 6 -6 -4 -9 -11 -6 -16 3 -4 0 -10 -7 -12
-12 -4 107 -138 289 -327 l98 -101 63 6 c35 4 62 12 62 18 0 6 -15 58 -34 116
l-33 105 -63 3 -62 3 7 -33 c4 -18 9 -43 12 -56 7 -29 -18 -21 -32 11 -6 12
-16 22 -22 22 -7 0 -20 10 -28 23 -9 12 -20 20 -24 18 -15 -10 -30 14 -92 152
-35 78 -68 142 -74 142 -6 0 -19 -14 -29 -31z"/>
<path d="M2133 1900 c-13 -6 -23 -18 -23 -30 0 -22 -40 -30 -40 -7 -1 6 -10
-5 -20 -25 -20 -37 -20 -37 0 -76 26 -51 42 -64 120 -105 36 -19 64 -40 63
-46 -2 -6 5 -11 15 -11 10 0 22 -4 28 -9 19 -19 148 -61 187 -61 52 0 207 82
207 109 0 12 45 49 130 107 71 49 130 92 130 97 0 4 -11 7 -24 7 -13 0 -26 5
-28 11 -2 7 -54 0 -151 -20 -81 -17 -174 -31 -205 -31 -72 1 -264 51 -302 79
-31 22 -52 25 -87 11z"/>
<path d="M3280 1580 c-17 -33 -30 -74 -30 -92 -1 -70 -79 -191 -138 -214 -20
-8 -51 -22 -69 -30 -58 -30 -255 5 -485 85 l-56 19 -174 -55 c-122 -39 -196
-56 -251 -60 l-78 -6 23 -25 c22 -24 26 -24 132 -19 87 5 112 3 123 -9 10 -9
40 -15 91 -16 42 -1 88 -3 102 -4 14 -1 72 -3 128 -3 95 -1 104 -3 109 -21 6
-24 73 -45 116 -36 47 10 129 55 170 94 l37 36 0 -97 c0 -80 -4 -108 -24 -157
-14 -33 -21 -60 -16 -60 5 0 41 -23 79 -51 39 -28 77 -49 85 -47 8 1 82 70
165 151 158 154 202 217 231 327 6 25 18 50 26 56 12 10 7 15 -28 28 -27 11
-52 30 -67 52 -13 19 -34 40 -45 46 -36 19 -63 54 -82 107 -10 28 -24 53 -31
55 -8 4 -24 -16 -43 -54z"/>
<path d="M1693 1487 c-43 -30 -168 -93 -224 -113 -45 -15 -46 -17 -36 -44 6
-16 18 -31 27 -33 20 -5 131 49 170 84 16 15 32 24 35 21 3 -3 5 0 5 6 0 7 11
12 24 12 21 0 24 -6 30 -57 7 -66 110 -550 119 -559 3 -3 41 20 84 52 43 32
79 59 81 60 2 1 -6 21 -19 45 -19 37 -36 150 -39 260 0 9 -21 26 -49 39 -62
29 -135 124 -153 199 -6 28 -14 51 -17 51 -3 -1 -20 -11 -38 -23z"/>
</g>
</svg>
